<svg width="48" height="48" viewBox="0 0 48 48" fill="none" xmlns="http://www.w3.org/2000/svg"><g clip-path="url(#clip0_46_416901)" fill="#3C4043"><path fill-rule="evenodd" clip-rule="evenodd" d="M-.139 3.777v28.609c0 1.967 1.646 3.576 3.658 3.576H14.49v-3.578H4.532c-.56 0-1.013-.454-1.013-1.013V4.79c0-.56.453-1.014 1.013-1.014h9.959V.201H3.519C1.507.201-.14 1.811-.14 3.777zm21.945 0v28.609c0 1.967-1.646 3.576-3.658 3.576h-3.657v-3.578h2.644c.56 0 1.013-.454 1.013-1.013V4.79c0-.56-.454-1.014-1.013-1.014H14.49V.201h3.657c2.012 0 3.658 1.61 3.658 3.576zm4.388 12.517v28.608c0 1.967 1.646 3.577 3.658 3.577h10.972V44.9h-9.958c-.56 0-1.014-.454-1.014-1.014v-26.58c0-.56.454-1.013 1.014-1.013h9.958v-3.577H29.852c-2.012 0-3.658 1.61-3.658 3.577zm21.945 0v28.608c0 1.967-1.646 3.577-3.658 3.577h-3.657V44.9h2.644c.56 0 1.013-.454 1.013-1.014v-26.58c0-.56-.453-1.013-1.013-1.013h-2.644v-3.577h3.657c2.012 0 3.658 1.61 3.658 3.577z"/><path d="M28.023 19.87H46.31v5.364H28.023V19.87z"/><rect x="6.445" y="6.795" width="5.852" height="5.852" rx=".811"/></g><defs><clipPath id="clip0_46_416901"><path fill="#fff" d="M0 0h48v48H0z"/></clipPath></defs></svg>