<svg width="48" height="48" viewBox="0 0 48 48" fill="none" xmlns="http://www.w3.org/2000/svg"><g clip-path="url(#clip0_44_423386)"><g clip-path="url(#clip1_44_423386)"><circle cx="24" cy="24" r="24" fill="#EE675C"/><g clip-path="url(#clip2_44_423386)"><path d="M22.5 27h3l-.575-3.225a1.81 1.81 0 00.775-.725c.2-.317.3-.667.3-1.05 0-.55-.2-1.017-.6-1.4-.383-.4-.85-.6-1.4-.6-.55 0-1.025.2-1.425.6-.383.383-.575.85-.575 1.4 0 .383.092.733.275 1.05.2.317.467.558.8.725L22.5 27zm1.5 7c-2.317-.583-4.233-1.908-5.75-3.975C16.75 27.942 16 25.633 16 23.1V17l8-3 8 3v6.1c0 2.533-.758 4.842-2.275 6.925-1.5 2.067-3.408 3.392-5.725 3.975zm0-2.1c1.733-.55 3.167-1.65 4.3-3.3s1.7-3.483 1.7-5.5v-4.725l-6-2.25-6 2.25V23.1c0 2.017.567 3.85 1.7 5.5s2.567 2.75 4.3 3.3z" fill="#fff"/></g></g></g><defs><clipPath id="clip0_44_423386"><path fill="#fff" d="M0 0h48v48H0z"/></clipPath><clipPath id="clip1_44_423386"><path fill="#fff" d="M0 0h48v48H0z"/></clipPath><clipPath id="clip2_44_423386"><path fill="#fff" transform="translate(12 12)" d="M0 0h24v24H0z"/></clipPath></defs></svg>