<svg width="48" height="48" viewBox="0 0 48 48" fill="none" xmlns="http://www.w3.org/2000/svg"><g clip-path="url(#clip0_44_423388)"><g clip-path="url(#clip1_44_423388)"><circle cx="24" cy="24" r="24" fill="#EE675C"/><g clip-path="url(#clip2_44_423388)"><path d="M24 28a.948.948 0 00.7-.275c.2-.2.3-.442.3-.725s-.1-.517-.3-.7a.908.908 0 00-.7-.3c-.283 0-.525.1-.725.3A.948.948 0 0023 27c0 .283.092.525.275.725.2.183.442.275.725.275zm-1-4h2v-5h-2v5zm1 10c-2.317-.583-4.233-1.908-5.75-3.975C16.75 27.942 16 25.633 16 23.1V17l8-3 8 3v6.1c0 2.533-.758 4.842-2.275 6.925-1.5 2.067-3.408 3.392-5.725 3.975zm0-2.1c1.733-.55 3.167-1.65 4.3-3.3s1.7-3.483 1.7-5.5v-4.725l-6-2.25-6 2.25V23.1c0 2.017.567 3.85 1.7 5.5s2.567 2.75 4.3 3.3z" fill="#fff"/></g></g></g><defs><clipPath id="clip0_44_423388"><path fill="#fff" d="M0 0h48v48H0z"/></clipPath><clipPath id="clip1_44_423388"><path fill="#fff" d="M0 0h48v48H0z"/></clipPath><clipPath id="clip2_44_423388"><path fill="#fff" transform="translate(12 12)" d="M0 0h24v24H0z"/></clipPath></defs></svg>