<svg width="48" height="48" viewBox="0 0 48 48" fill="none" xmlns="http://www.w3.org/2000/svg"><g clip-path="url(#clip0_44_423389)"><g clip-path="url(#clip1_44_423389)"><circle cx="24" cy="24" r="24" fill="#EE675C"/><g clip-path="url(#clip2_44_423389)"><path d="M23.95 34a2.893 2.893 0 01-2.125-.875A2.893 2.893 0 0120.95 31v-1.8l-1.575.9c-.7.4-1.45.508-2.25.325-.8-.2-1.417-.675-1.85-1.425-.417-.733-.517-1.492-.3-2.275.217-.8.683-1.408 1.4-1.825l1.575-.9-1.575-.9c-.733-.417-1.208-1.025-1.425-1.825-.2-.8-.092-1.558.325-2.275.45-.783 1.083-1.258 1.9-1.425.817-.167 1.55-.058 2.2.325l1.575.9V17c0-.833.292-1.542.875-2.125A2.893 2.893 0 0123.95 14c.833 0 1.542.292 2.125.875s.875 1.292.875 2.125v1.8l1.55-.9c.7-.4 1.45-.5 2.25-.3.8.183 1.417.65 1.85 1.4.417.733.517 1.5.3 2.3-.217.783-.683 1.383-1.4 1.8l-1.55.9 1.55.9a2.917 2.917 0 011.4 1.825c.217.8.117 1.558-.3 2.275-.433.75-1.05 1.225-1.85 1.425-.8.183-1.55.075-2.25-.325l-1.55-.9V31c0 .833-.292 1.542-.875 2.125A2.893 2.893 0 0123.95 34zm4-11.15l2.55-1.475a.919.919 0 00.45-.6.958.958 0 00-.075-.775c-.15-.267-.358-.425-.625-.475a.98.98 0 00-.75.1L25.95 21.7l2 1.15zm-3-1.75V17c0-.283-.1-.517-.3-.7a.908.908 0 00-.7-.3c-.283 0-.525.1-.725.3a.948.948 0 00-.275.7v2.95l2 1.15zm-1 10.9a.948.948 0 00.7-.275c.2-.2.3-.442.3-.725v-4.1l-2 1.15V31c0 .283.092.525.275.725.2.183.442.275.725.275zm-5.575-3.625L25.95 24l-7.575-4.375a.98.98 0 00-.75-.1A.989.989 0 0017 20a.98.98 0 00-.1.75.989.989 0 00.475.625L21.95 24l-4.575 2.625a1.012 1.012 0 00-.475.6.915.915 0 00.1.775c.15.267.358.433.625.5.267.05.517.008.75-.125zm11.125 0a.98.98 0 00.75.1.989.989 0 00.625-.475.906.906 0 00.075-.75.919.919 0 00-.45-.6l-2.55-1.5-2 1.15 3.55 2.075z" fill="#fff"/></g></g></g><defs><clipPath id="clip0_44_423389"><path fill="#fff" d="M0 0h48v48H0z"/></clipPath><clipPath id="clip1_44_423389"><path fill="#fff" d="M0 0h48v48H0z"/></clipPath><clipPath id="clip2_44_423389"><path fill="#fff" transform="translate(12 12)" d="M0 0h24v24H0z"/></clipPath></defs></svg>