<svg width="48" height="48" viewBox="0 0 48 48" fill="none" xmlns="http://www.w3.org/2000/svg"><g clip-path="url(#clip0_44_423387)"><g clip-path="url(#clip1_44_423387)"><circle cx="24" cy="24" r="24" fill="#EE675C"/><path d="M23.75 29.4a2.56 2.56 0 001.575-.525A2.54 2.54 0 0026.3 27.5H31v2h1.5v-2H34V26h-7.7a2.54 2.54 0 00-.975-1.375 2.56 2.56 0 00-1.575-.525c-.75 0-1.383.258-1.9.775-.5.5-.75 1.125-.75 1.875s.25 1.383.75 1.9c.517.5 1.15.75 1.9.75zm0-3.9c-.35 0-.65.125-.9.375-.233.233-.35.525-.35.875s.117.65.35.9c.25.233.55.35.9.35s.642-.117.875-.35c.25-.25.375-.55.375-.9s-.125-.642-.375-.875a1.147 1.147 0 00-.875-.375zm-11.625.5c.1-1.467.45-2.842 1.05-4.125.6-1.3 1.383-2.433 2.35-3.4a11.263 11.263 0 013.35-2.35A11.09 11.09 0 0123 15.15v2c-2.4.133-4.442 1.042-6.125 2.725-1.683 1.683-2.6 3.725-2.75 6.125h-2zm3.5 0c.117-2 .875-3.692 2.275-5.075 1.4-1.4 3.1-2.158 5.1-2.275v2c-1.433.133-2.658.7-3.675 1.7-1 1-1.567 2.217-1.7 3.65h-2zm8.15 5.4c-1.3 0-2.4-.45-3.3-1.35-.9-.9-1.35-2-1.35-3.3 0-1.3.45-2.4 1.35-3.3.9-.9 2-1.35 3.3-1.35.783 0 1.492.175 2.125.525.65.333 1.192.792 1.625 1.375H36v5.5h-1.5v2H29v-2h-1.475a4.88 4.88 0 01-1.625 1.4c-.633.333-1.342.5-2.125.5z" fill="#fff"/></g></g><defs><clipPath id="clip0_44_423387"><path fill="#fff" d="M0 0h48v48H0z"/></clipPath><clipPath id="clip1_44_423387"><path fill="#fff" d="M0 0h48v48H0z"/></clipPath></defs></svg>